<svg id="Capa_1" enable-background="new 0 0 512.01 512.01" height="512" viewBox="0 0 512.01 512.01" width="512" xmlns="http://www.w3.org/2000/svg"><g id="XMLID_255_"><path id="XMLID_256_" d="m382.005 207.667c0 5.523 4.478 10 10 10s10-4.477 10-10v-20c0-5.523-4.478-10-10-10s-10 4.477-10 10z"/><path id="XMLID_257_" d="m392.005 150c5.522 0 10-4.477 10-10v-20c0-5.523-4.478-10-10-10s-10 4.477-10 10v20c0 5.523 4.477 10 10 10z"/><path id="XMLID_258_" d="m424.005 207.667c0 5.523 4.478 10 10 10s10-4.477 10-10v-20c0-5.523-4.478-10-10-10s-10 4.477-10 10z"/><path id="XMLID_259_" d="m434.005 150c5.522 0 10-4.477 10-10v-20c0-5.523-4.478-10-10-10s-10 4.477-10 10v20c0 5.523 4.477 10 10 10z"/><path id="XMLID_265_" d="m350.005 217.667c5.522 0 10-4.477 10-10v-20c0-5.523-4.478-10-10-10s-10 4.477-10 10v20c0 5.522 4.477 10 10 10z"/><path id="XMLID_266_" d="m350.005 150c5.522 0 10-4.477 10-10v-20c0-5.523-4.478-10-10-10s-10 4.477-10 10v20c0 5.523 4.477 10 10 10z"/><path id="XMLID_269_" d="m256.132 122.083c17.645 0 32-14.355 32-32s-14.355-32-32-32-32 14.355-32 32 14.355 32 32 32zm0-44c6.617 0 12 5.383 12 12s-5.383 12-12 12-12-5.383-12-12 5.383-12 12-12z"/><path id="XMLID_272_" d="m155.731 64c17.645 0 32-14.355 32-32s-14.355-32-32-32-32 14.355-32 32 14.356 32 32 32zm0-44c6.617 0 12 5.383 12 12s-5.383 12-12 12-12-5.383-12-12 5.383-12 12-12z"/><path id="XMLID_290_" d="m64.005 118c17.645 0 32-14.355 32-32s-14.355-32-32-32-32 14.355-32 32 14.355 32 32 32zm0-44c6.617 0 12 5.383 12 12s-5.383 12-12 12-12-5.383-12-12 5.383-12 12-12z"/><path id="XMLID_291_" d="m256.005 290c-2.63 0-5.21 1.07-7.07 2.93s-2.93 4.44-2.93 7.07 1.069 5.21 2.93 7.07 4.44 2.93 7.07 2.93 5.21-1.07 7.069-2.93c1.86-1.86 2.931-4.44 2.931-7.07s-1.07-5.21-2.931-7.07c-1.859-1.86-4.439-2.93-7.069-2.93z"/><path id="XMLID_321_" d="m512.005 278c0-14.153-9.239-26.181-22-30.391v-213.609c0-18.748-15.252-34-34-34h-40c-15.551 0-28.687 10.498-32.718 24.777-23.427 4.138-41.282 24.628-41.282 49.223 0 5.523 4.478 10 10 10h80c5.522 0 10-4.477 10-10 0-23.154-15.822-42.676-37.22-48.338 2.554-3.428 6.626-5.662 11.22-5.662h40c7.72 0 14 6.28 14 14v212h-177.752c-3.806-20.766-19.222-37.872-39.604-43.689-1.46-6.614-4.771-12.682-9.688-17.6-7.927-7.925-19.144-11.612-30.059-10.239-14.989-17.627-37.101-27.971-60.397-27.971-18.146 0-35.88 6.293-49.937 17.72-11.578 9.412-20.284 21.966-25.07 35.964-14.561.109-28.723 5.918-39.141 16.336-8.487 8.488-13.899 19.229-15.69 30.873-13.103 4.005-22.662 16.209-22.662 30.606 0 14.153 9.239 26.181 22 30.391v61.275c0 30.202 10.829 57.92 28.802 79.485l-10.208 17.681c-8.301 14.378-3.357 32.829 11.021 41.13 4.64 2.679 9.788 4.047 15.006 4.047 2.615 0 5.248-.344 7.842-1.039 7.769-2.082 14.262-7.064 18.282-14.029l6.945-12.03c14.411 5.854 30.156 9.088 46.644 9.088h219.334c16.282 0 31.84-3.151 46.104-8.867l6.818 11.809c4.021 6.965 10.514 11.947 18.282 14.029 2.594.695 5.227 1.039 7.842 1.039 5.217 0 10.366-1.368 15.006-4.047 6.965-4.021 11.947-10.514 14.029-18.282 2.081-7.769 1.013-15.883-3.009-22.848l-9.938-17.212c18.209-21.632 29.198-49.532 29.198-79.954v-61.275c12.761-4.21 22-16.238 22-30.391zm-91.714-214h-56.572c4.127-11.641 15.249-20 28.286-20s24.159 8.359 28.286 20zm-367.791 166.662c8.051-8.051 19.596-11.809 30.874-10.059 5.222.806 10.158-2.569 11.299-7.72 5.95-26.876 30.272-46.383 57.832-46.383 19.107 0 37.153 9.316 48.274 24.922 2.58 3.62 7.239 5.102 11.438 3.638 5.855-2.042 12.218-.591 16.602 3.793 3.087 3.087 4.748 7.198 4.678 11.576-.081 5.069 3.643 9.397 8.667 10.072 14.259 1.916 25.688 12.213 29.576 25.499h-228.329c1.658-5.738 4.748-10.998 9.089-15.338zm22.929 256.28c-1.351 2.338-3.53 4.011-6.139 4.71-2.607.698-5.331.341-7.671-1.01-2.339-1.35-4.011-3.53-4.71-6.138s-.34-5.333 1.01-7.671l7.445-12.894c5.134 4.416 10.629 8.423 16.438 11.965zm379.005-2.438c-.698 2.608-2.371 4.789-4.71 6.139-4.827 2.787-11.022 1.126-13.81-3.701l-6.202-10.742c5.823-3.514 11.333-7.493 16.485-11.883l7.226 12.516c1.351 2.338 1.71 5.063 1.011 7.671zm25.571-194.504h-179.003c-5.522 0-10 4.477-10 10s4.478 10 10 10h169.003v59.667c0 57.53-46.804 104.333-104.333 104.333h-219.334c-57.529 0-104.333-46.804-104.333-104.333v-59.667h169.004c5.522 0 10-4.477 10-10s-4.478-10-10-10h-179.004c-6.617 0-12-5.383-12-12s5.383-12 12-12h448c6.617 0 12 5.383 12 12s-5.383 12-12 12z"/></g></svg>